<?xml version="1.0" encoding="utf-8"?>
<!-- Generator: Adobe Illustrator 22.0.1, SVG Export Plug-In . SVG Version: 6.00 Build 0)  -->
<svg version="1.1" id="Layer_1" xmlns="http://www.w3.org/2000/svg" xmlns:xlink="http://www.w3.org/1999/xlink" x="0px" y="0px"
	 viewBox="0 0 37.9 10.8" style="enable-background:new 0 0 37.9 10.8;" xml:space="preserve">
<g>
	<path d="M27.5,2.9c0.1-0.6,0.2-1.1,0.3-1.5C27.9,1.1,28,0.6,28.2,0h0.9L28,5h-1l-1.1-5h0.9"/>
	<path d="M32.3,5l-0.2-1.1h-1L30.9,5H30l1-5h1.3l1,5H32.3z M31.9,3l-0.3-1.5L31.3,3H31.9z"/>
	<path d="M36.9,5l-1-2.6V5H35V0h1l1,2.6V0h0.9v5l0,0H36.9z"/>
</g>
<path d="M14.6,5h-1l-0.8-2h-0.2v2h-1V0h2.2l0.6,0.5v1.8L13.8,3L14.6,5z M12.6,2h1V0.9h-1V2z"/>
<path d="M18.8,5h-2.4V0h2.4v0.9h-1.5V2h1.3v1h-1.3v1.1h1.5V5z"/>
<path d="M22.8,0l0.6,0.5v3.9L22.8,5h-2.3V0H22.8z M22.4,4.1V0.9h-1v3.2H22.4z"/>
<g>
	<path d="M2.1,0.7H1.4v3H0.6v-3H0V0.1h2.1V0.7z"/>
	<path d="M5.5,3.8H4.8V2.3H4.1v1.5H3.4V0.1h0.7v1.5h0.7V0.1h0.7L5.5,3.8L5.5,3.8z"/>
	<path d="M8.6,3.8H6.8V0.1h1.8v0.7h-1v0.8h0.8v0.7H7.6V3h1.1L8.6,3.8L8.6,3.8z"/>
</g>
<g>
	<path d="M8.4,5H0.3C0.2,5,0.1,4.9,0.1,4.8s0.1-0.2,0.2-0.2h8.1c0.1,0,0.2,0.1,0.2,0.2S8.5,5,8.4,5z"/>
</g>
<g>
	<path d="M4.6,5.6l-0.9,5.2h-1L2.4,8.6L2,10.8H1L0.1,5.6h1l0.4,2.6L2,5.6h0.8l0.5,2.6l0.4-2.6H4.6z"/>
	<path d="M9.4,10.2l-0.6,0.6H7l-0.6-0.6v-4L7,5.6h1.8l0.6,0.5C9.4,6.1,9.4,10.2,9.4,10.2z M8.5,9.8V6.6H7.4v3.2H8.5z"/>
	<path d="M14.2,10.8h-1l-0.8-2.1h-0.3v2.1h-1V5.6h2.3L14,6.1V8l-0.6,0.6L14.2,10.8z M12.1,7.7h1V6.6h-1V7.7z"/>
	<path d="M19,5.6l-1.3,2.6l1.3,2.6h-1l-1-2.1v2.1h-1V5.6h1v2.1l1-2.1H19z"/>
	<path d="M23.7,10.2l-0.6,0.6h-1.6l-0.6-0.6V9.4h0.9v0.4h1V8.7h-1.3l-0.6-0.5v-2l0.6-0.5h1.6l0.6,0.5V7h-0.9V6.6h-1v1.1h1.3l0.6,0.5
		V10.2z"/>
	<path d="M28.4,10.8h-0.9V8.7h-1.1v2.1h-0.9V5.6h0.9v2.1h1.1V5.6h0.9V10.8z"/>
	<path d="M33.2,10.2l-0.6,0.6h-1.8l-0.6-0.6v-4l0.6-0.5h1.8l0.6,0.5V10.2z M32.2,9.8V6.6h-1.1v3.2H32.2z"/>
	<path d="M37.8,8.5L37.2,9h-1.3v1.8H35V5.6h2.2l0.6,0.5V8.5z M36.9,8.1V6.6h-1v1.5H36.9z"/>
</g>
</svg>
